<svg width="60" height="60" viewBox="0 0 60 60" fill="none" xmlns="http://www.w3.org/2000/svg">
<path d="M30 0C13.432 0 0 13.432 0 30C0 46.568 13.432 60 30 60C46.568 60 60 46.568 60 30C60 13.432 46.568 0 30 0ZM35 49.75H25V25.75H35V49.75ZM30 20.25C28.6739 20.25 27.4021 19.7232 26.4645 18.7855C25.5268 17.8479 25 16.5761 25 15.25C25 13.9239 25.5268 12.6521 26.4645 11.7145C27.4021 10.7768 28.6739 10.25 30 10.25C31.3261 10.25 32.5979 10.7768 33.5355 11.7145C34.4732 12.6521 35 13.9239 35 15.25C35 16.5761 34.4732 17.8479 33.5355 18.7855C32.5979 19.7232 31.3261 20.25 30 20.25Z" fill="#4E89A8"/>
</svg>
