<svg width="100" height="100" viewBox="0 0 100 100" fill="none" xmlns="http://www.w3.org/2000/svg">
<path d="M100 50C100 77.6142 77.6142 100 50 100C22.3858 100 0 77.6142 0 50C0 22.3858 22.3858 0 50 0C77.6142 0 100 22.3858 100 50Z" fill="white"/>
<path fill-rule="evenodd" clip-rule="evenodd" d="M50 100C77.6145 100 100 77.6142 100 50C100 22.3858 77.6145 0 50 0C22.3858 0 0 22.3858 0 50C0 77.6142 22.3858 100 50 100ZM57.7175 38.6314C61.9795 34.3692 61.9795 27.4589 57.7175 23.1967C53.4552 18.9345 46.5449 18.9345 42.2827 23.1967C38.0207 27.4589 38.0207 34.3692 42.2827 38.6314L50 46.3487L57.7175 38.6314ZM61.3687 57.7175C65.631 61.9797 72.5412 61.9797 76.8035 57.7175C81.0655 53.4552 81.0655 46.5449 76.8035 42.2827C72.5412 38.0207 65.631 38.0207 61.3687 42.2827L53.6515 50.0002L61.3687 57.7175ZM57.7175 76.8035C61.9795 72.5412 61.9795 65.631 57.7175 61.3687L50 53.6515L42.2827 61.3687C38.0207 65.631 38.0207 72.5412 42.2827 76.8035C46.5449 81.0657 53.4552 81.0657 57.7175 76.8035ZM23.1966 57.7175C18.9345 53.4552 18.9345 46.5449 23.1966 42.2827C27.4589 38.0207 34.3692 38.0207 38.6314 42.2827L46.3487 50.0002L38.6314 57.7175C34.3692 61.9797 27.4589 61.9797 23.1966 57.7175Z" fill="#4E89A8"/>
</svg>
